<?xml version="1.0" encoding="UTF-8" standalone="no"?>
<!DOCTYPE svg PUBLIC "-//W3C//DTD SVG 1.1//EN" "http://www.w3.org/Graphics/SVG/1.1/DTD/svg11.dtd">
<svg width="100%" height="100%" viewBox="0 0 512 512" version="1.1" xmlns="http://www.w3.org/2000/svg" xmlns:xlink="http://www.w3.org/1999/xlink" xml:space="preserve" xmlns:serif="http://www.serif.com/" style="fill-rule:evenodd;clip-rule:evenodd;stroke-linecap:round;stroke-linejoin:round;stroke-miterlimit:1.5;">
    <g transform="matrix(1.39891,0,0,1.39891,-102.12,-61.8186)">
        <path d="M412.27,285L99.73,285L99.73,300.445C99.73,340.876 132.554,373.7 172.985,373.7L339.015,373.7C379.446,373.7 412.27,340.876 412.27,300.445L412.27,285ZM99.73,187L412.27,187L412.27,153.936C412.27,113.505 379.446,80.681 339.015,80.681L172.985,80.681C132.554,80.681 99.73,113.505 99.73,153.936L99.73,187Z" style="fill:rgb(242,167,47);"/>
        <clipPath id="_clip1">
            <path d="M412.27,153.936C412.27,113.505 379.446,80.681 339.015,80.681L172.985,80.681C132.554,80.681 99.73,113.505 99.73,153.936L99.73,300.445C99.73,340.876 132.554,373.7 172.985,373.7L339.015,373.7C379.446,373.7 412.27,340.876 412.27,300.445L412.27,153.936Z"/>
        </clipPath>
        <g clip-path="url(#_clip1)">
            <path d="M422.55,285L346.551,285C346.664,311.262 353.141,370.873 256,378C216.83,380.874 401,389 401,389L422.55,285Z" style="fill:rgb(240,131,35);"/>
        </g>
        <clipPath id="_clip2">
            <path d="M412.27,153.936C412.27,113.505 379.446,80.681 339.015,80.681L172.985,80.681C132.554,80.681 99.73,113.505 99.73,153.936L99.73,300.445C99.73,340.876 132.554,373.7 172.985,373.7L339.015,373.7C379.446,373.7 412.27,340.876 412.27,300.445L412.27,153.936Z"/>
        </clipPath>
        <g clip-path="url(#_clip2)">
            <path d="M433.961,187L440,42C440,42 270.716,71.533 291,77C347.466,92.218 390.491,123.866 367,178C365.619,181.183 364.394,184.179 363.312,187L433.961,187Z" style="fill:rgb(240,131,35);"/>
        </g>
        <g transform="matrix(1,0,0,1,-8,-4)">
            <path d="M447,264C447,251.858 437.142,242 425,242L103,242C90.858,242 81,251.858 81,264C81,276.142 90.858,286 103,286L425,286C437.142,286 447,276.142 447,264Z" style="fill:rgb(77,39,30);"/>
        </g>
        <clipPath id="_clip3">
            <path d="M439,260C439,247.858 429.142,238 417,238L95,238C82.858,238 73,247.858 73,260C73,272.142 82.858,282 95,282L417,282C429.142,282 439,272.142 439,260Z"/>
        </clipPath>
        <g clip-path="url(#_clip3)">
            <path d="M375,227.191C374.863,238.67 376.259,277.023 335,289C305.886,297.452 462,297 462,297L460,227.191C460,227.191 375.133,216.045 375,227.191Z" style="fill:rgb(48,14,9);"/>
        </g>
        <g transform="matrix(-1,1.22465e-16,-1.08638e-16,-0.887097,558.73,443.424)">
            <path d="M301.5,214L459,276L144,276L301.5,214Z" style="fill:rgb(252,212,63);stroke:rgb(252,212,63);stroke-width:3.03px;"/>
        </g>
        <g transform="matrix(1,0,0,1,-4.05606,31)">
            <path d="M88,164L427,164C427,164 446.874,163.549 439,179C427.727,201.122 417.168,166.053 399,173C388.815,176.894 381.513,188.921 364,180C346.487,171.079 338.366,154.716 327,175C315.634,195.284 301.227,182.32 296,177C290.773,171.68 281.31,159.796 264,176C246.69,192.204 239.654,179.578 237,177C235.18,175.233 227.969,162.848 207,179C186.031,195.152 182.83,186.361 177,180C171.525,174.026 162.735,156.352 134,175C105.265,193.648 91.121,182.035 88,179C72.647,164.074 88,164 88,164Z" style="fill:rgb(120,181,73);stroke:rgb(120,180,74);stroke-width:6.43px;"/>
        </g>
        <g>
            <g transform="matrix(1,0,0,1,83.5,21)">
                <ellipse cx="172.5" cy="122.5" rx="5.5" ry="9.5" style="fill:rgb(235,235,235);"/>
            </g>
            <g transform="matrix(0.866025,-0.5,0.5,0.866025,119.361,124.486)">
                <ellipse cx="172.5" cy="122.5" rx="5.5" ry="9.5" style="fill:rgb(235,235,235);"/>
            </g>
            <g transform="matrix(0.866025,-0.5,0.5,0.866025,80.3606,90.6619)">
                <ellipse cx="172.5" cy="122.5" rx="5.5" ry="9.5" style="fill:rgb(235,235,235);"/>
            </g>
            <g transform="matrix(0.866025,0.5,-0.5,0.866025,93.8606,-48.8381)">
                <ellipse cx="172.5" cy="122.5" rx="5.5" ry="9.5" style="fill:rgb(235,235,235);"/>
            </g>
            <g transform="matrix(0.866025,0.5,-0.5,0.866025,130.861,-81.8381)">
                <ellipse cx="172.5" cy="122.5" rx="5.5" ry="9.5" style="fill:rgb(235,235,235);"/>
            </g>
        </g>
    </g>
</svg>
